<svg xmlns="http://www.w3.org/2000/svg" width="220" height="220" viewBox="0 0 220 220" version="1.1">
	<path d="M 57.280 4.736 C 59.909 4.943, 63.959 4.940, 66.280 4.731 C 68.601 4.521, 66.450 4.352, 61.500 4.355 C 56.550 4.358, 54.651 4.530, 57.280 4.736 M 172.813 4.683 C 173.534 4.972, 174.397 4.936, 174.729 4.604 C 175.061 4.272, 174.471 4.036, 173.417 4.079 C 172.252 4.127, 172.015 4.364, 172.813 4.683 M 50.270 14.483 C 48.493 15.255, 46.132 17.375, 45.023 19.193 C 43.043 22.441, 43.007 24.036, 43.004 108.782 C 43.001 181.096, 43.230 195.615, 44.421 198.466 C 47.222 205.168, 45.542 205, 109.728 205 C 173.180 205, 170.255 205.276, 173.506 198.989 C 174.798 196.490, 175 184.282, 175 108.685 L 175 21.270 172.832 18.514 C 168.472 12.971, 168.776 12.997, 108.782 13.039 C 63.582 13.071, 52.911 13.334, 50.270 14.483 M 34.079 16.583 C 34.127 17.748, 34.364 17.985, 34.683 17.188 C 34.972 16.466, 34.936 15.603, 34.604 15.271 C 34.272 14.939, 34.036 15.529, 34.079 16.583 M 53.117 23.359 C 52.294 24.350, 52.058 47.851, 52.244 110.109 L 52.500 195.500 109 195.500 L 165.500 195.500 165.756 110.109 C 165.942 47.851, 165.706 24.350, 164.883 23.359 C 163.210 21.343, 54.790 21.343, 53.117 23.359 M 34.479 116.500 C 34.479 166, 34.601 186.104, 34.750 161.175 C 34.899 136.246, 34.899 95.746, 34.750 71.175 C 34.601 46.604, 34.479 67, 34.479 116.500 M 92.879 43.308 C 85.018 45.988, 80.089 49.528, 76.208 55.280 C 72.368 60.970, 70.957 64.764, 70.708 70.057 L 70.500 74.500 80.959 74.500 L 91.418 74.500 92.109 71.123 C 93.667 63.502, 99.941 59.002, 109 59.005 C 118.733 59.009, 123.807 63.783, 124.715 73.791 C 125.480 82.228, 123.149 86.675, 111.497 99.003 C 100.190 110.967, 97.176 116.511, 96.300 126.960 L 95.710 134 105.726 134 L 115.742 134 116.425 128.855 C 117.452 121.111, 120.318 116.465, 130.678 105.750 C 142.846 93.165, 146.463 86.103, 146.426 75 C 146.353 53.001, 132.965 40.957, 108.661 41.026 C 101.827 41.045, 97.818 41.625, 92.879 43.308 M 101.325 151.413 C 94.168 154.631, 92.366 164.519, 97.923 170.077 C 100.453 172.607, 101.594 173, 106.407 173 C 111.068 173, 112.462 172.555, 115.019 170.250 C 120.279 165.508, 119.754 155.826, 114.044 152.260 C 110.840 150.259, 104.789 149.856, 101.325 151.413 M 36 209.378 C 36 209.585, 36.788 210.373, 37.750 211.128 C 39.336 212.371, 39.371 212.336, 38.128 210.750 C 36.821 209.084, 36 208.555, 36 209.378 M 80.750 214.749 C 97.937 214.903, 126.062 214.903, 143.250 214.749 C 160.438 214.596, 146.375 214.470, 112 214.470 C 77.625 214.470, 63.562 214.596, 80.750 214.749" stroke="none" fill="black" fill-rule="evenodd"/>
</svg>